<svg width="96" height="96" xmlns="http://www.w3.org/2000/svg" xmlns:xlink="http://www.w3.org/1999/xlink" xml:space="preserve" overflow="hidden"><defs><clipPath id="clip0"><rect x="828" y="195" width="96" height="96"/></clipPath></defs><g clip-path="url(#clip0)" transform="translate(-828 -195)"><path d="M909.9 243.6C909.6 243.3 909.6 242.8 909.9 242.4L912.3 239.5C913.3 238.2 913.1 236.4 911.9 235.4 911.8 235.3 911.7 235.3 911.6 235.2L908.4 233.1C908 232.9 907.9 232.4 908 232L909.4 228.5C910 227 909.2 225.3 907.7 224.7 907.6 224.7 907.5 224.6 907.4 224.6L903.7 223.6C903.3 223.5 903 223.1 903 222.6L903.2 218.8C903.3 217.2 902.1 215.8 900.4 215.7 900.3 215.7 900.2 215.7 900.1 215.7L896.3 215.9C895.8 215.9 895.4 215.6 895.3 215.2L894.3 211.5C893.9 209.9 892.3 209 890.7 209.4 890.6 209.4 890.5 209.5 890.4 209.5L886.9 210.9C886.5 211.1 886 210.9 885.8 210.5L883.7 207.3C882.8 205.9 881 205.5 879.6 206.4 879.5 206.5 879.4 206.5 879.3 206.6L876.4 209C876.1 209.3 875.5 209.3 875.2 209L872.3 206.6C871 205.6 869.2 205.8 868.2 207 868.1 207.1 868.1 207.2 868 207.3L865.9 210.5C865.7 210.9 865.2 211 864.8 210.9L861.3 209.5C859.8 208.9 858.1 209.6 857.5 211.1 857.5 211.2 857.4 211.3 857.4 211.5L856.4 215.2C856.3 215.6 855.9 215.9 855.4 215.9L851.6 215.7C850 215.6 848.6 216.8 848.5 218.5 848.5 218.6 848.5 218.7 848.5 218.8L848.7 222.6C848.7 223 848.4 223.5 848 223.6L844.3 224.6C842.7 225 841.8 226.6 842.2 228.2 842.2 228.3 842.3 228.4 842.3 228.5L843.7 232C843.9 232.4 843.7 232.9 843.3 233.1L840.1 235.1C838.7 236 838.3 237.8 839.2 239.2 839.3 239.3 839.3 239.4 839.4 239.5L841.8 242.4C842.1 242.7 842.1 243.3 841.8 243.6L839.4 246.5C838.4 247.8 838.6 249.6 839.8 250.6 839.9 250.7 840 250.7 840.1 250.8L843.3 252.9C843.7 253.1 843.8 253.6 843.7 254L842.3 257.5C841.7 259 842.5 260.7 844 261.3 844.1 261.3 844.2 261.4 844.3 261.4L848 262.4C848.4 262.5 848.7 262.9 848.7 263.4L848.5 267.2C848.4 268.8 849.6 270.2 851.3 270.3 851.4 270.3 851.5 270.3 851.6 270.3L855.4 270.1C855.8 270.1 856.3 270.4 856.4 270.8L857.4 274.5C857.8 276.1 859.4 277 861 276.6 861.1 276.6 861.2 276.5 861.3 276.5L864.8 275.1C865.2 274.9 865.7 275.1 865.9 275.5L868 278.7C868.9 280.1 870.7 280.5 872.1 279.6 872.2 279.5 872.3 279.5 872.3 279.4L875.2 277C875.5 276.7 876.1 276.7 876.4 277L879.3 279.4C879.8 279.8 880.5 280.1 881.2 280.1 881.4 280.1 881.5 280.1 881.7 280.1 882.5 280 883.3 279.5 883.7 278.8L885.8 275.6C886 275.2 886.5 275.1 886.9 275.2L890.4 276.6C891.9 277.2 893.6 276.4 894.2 274.9 894.2 274.8 894.3 274.7 894.3 274.6L895.3 270.9C895.4 270.5 895.8 270.2 896.3 270.2L900.1 270.4C901.7 270.5 903.1 269.3 903.2 267.6 903.2 267.5 903.2 267.4 903.2 267.3L903 263.5C903 263.1 903.3 262.6 903.7 262.5L907.4 261.5C909 261.1 909.9 259.5 909.5 257.9 909.5 257.8 909.4 257.7 909.4 257.6L908 254.1C907.8 253.7 908 253.2 908.4 253L911.6 250.9C913 250 913.4 248.2 912.5 246.8 912.5 246.7 909.9 243.6 909.9 243.6ZM907.4 251.3C906.2 252.1 905.7 253.5 906.3 254.8L907.7 258.3C907.9 258.8 907.6 259.3 907.2 259.5L907.1 259.5 903.4 260.5C902 260.9 901.1 262.1 901.2 263.5L901.4 267.3C901.4 267.8 901 268.3 900.5 268.3L900.4 268.3 896.6 268.1C895.2 268 893.9 268.9 893.6 270.3L892.6 274C892.5 274.5 891.9 274.8 891.4 274.7L891.3 274.7 887.8 273.3C886.5 272.8 885 273.3 884.2 274.4L882.1 277.6C881.8 278 881.2 278.2 880.8 277.9 880.8 277.9 880.7 277.9 880.7 277.8L877.8 275.4C876.7 274.5 875.2 274.5 874.1 275.4L871.2 277.8C870.8 278.1 870.2 278.1 869.9 277.7 869.9 277.7 869.9 277.7 869.8 277.6L867.7 274.4C866.9 273.2 865.5 272.7 864.2 273.3L860.7 274.7C860.2 274.9 859.7 274.6 859.5 274.2L859.5 274.1 858.5 270.4C858.1 269 856.9 268.1 855.5 268.2L851.7 268.4C851.2 268.4 850.7 268 850.7 267.5L850.7 267.4 850.9 263.6C851 262.2 850.1 260.9 848.7 260.6L845 259.6C844.7 259.5 844.5 259.4 844.4 259.1 844.3 258.9 844.3 258.6 844.4 258.3L845.8 254.8C846.3 253.5 845.8 252 844.7 251.3L841.5 249.2C841.1 248.9 840.9 248.3 841.2 247.9 841.2 247.9 841.2 247.8 841.3 247.8L843.7 244.9C844.6 243.8 844.6 242.3 843.7 241.2L841.3 238.3C841 237.9 841 237.3 841.4 237 841.4 237 841.5 237 841.5 236.9L844.7 234.9C845.9 234.1 846.4 232.7 845.8 231.4L844.4 227.9C844.3 227.7 844.3 227.4 844.4 227.1 844.5 226.9 844.7 226.7 845 226.6L848.7 225.6C850.1 225.2 851 224 850.9 222.6L850.7 218.8C850.7 218.5 850.8 218.3 851 218.1 851.2 217.9 851.5 217.8 851.7 217.8L855.5 218C856.9 218.1 858.1 217.2 858.5 215.8L859.5 212.1C859.6 211.8 859.7 211.6 860 211.5 860.2 211.4 860.5 211.4 860.8 211.5L864.3 212.9C865.6 213.4 867.1 212.9 867.8 211.8L869.8 208.6C870.1 208.2 870.7 208 871.1 208.3 871.1 208.3 871.2 208.3 871.2 208.4L874.1 210.8C875.2 211.7 876.7 211.7 877.8 210.8L880.7 208.4C881.1 208.1 881.7 208.1 882 208.5 882 208.5 882 208.5 882.1 208.6L884.2 211.8C885 213 886.4 213.5 887.7 212.9L891.2 211.5C891.7 211.3 892.2 211.6 892.4 212L892.4 212.1 893.4 215.8C893.8 217.2 895 218.1 896.4 218L900.2 217.8C900.5 217.8 900.7 217.9 900.9 218.1 901.1 218.3 901.2 218.6 901.2 218.8L901 222.6C900.9 224 901.8 225.3 903.2 225.6L906.9 226.6C907.4 226.7 907.7 227.3 907.6 227.8L907.6 227.9 906.2 231.4C905.7 232.7 906.2 234.2 907.3 234.9L910.5 236.9C910.9 237.2 911.1 237.8 910.8 238.2 910.8 238.2 910.8 238.3 910.7 238.3L908.3 241.2C907.4 242.3 907.4 243.8 908.3 244.9L910.7 247.8C911.2 248.2 911.1 248.8 910.6 249.2 910.6 249.2 907.4 251.3 907.4 251.3Z" stroke="#333F50"/><path d="M876 218C862.2 218 851 229.2 851 243 851 256.8 862.2 268 876 268 889.8 268 901 256.8 901 243 901 229.2 889.8 218 876 218ZM876 266C863.3 266 853 255.7 853 243 853 230.3 863.3 220 876 220 888.7 220 899 230.3 899 243L899 243C899 255.7 888.7 266 876 266Z" stroke="#333F50"/><path d="M873 248.6 864.7 240.3 863.3 241.7 873 251.4 889.7 234.7 888.3 233.3Z" stroke="#333F50"/></g></svg>